<?xml version="1.0" encoding="UTF-8" standalone="no"?>
<svg
   xmlns:dc="http://purl.org/dc/elements/1.1/"
   xmlns:cc="http://creativecommons.org/ns#"
   xmlns:rdf="http://www.w3.org/1999/02/22-rdf-syntax-ns#"
   xmlns:svg="http://www.w3.org/2000/svg"
   xmlns="http://www.w3.org/2000/svg"
   xmlns:sodipodi="http://sodipodi.sourceforge.net/DTD/sodipodi-0.dtd"
   xmlns:inkscape="http://www.inkscape.org/namespaces/inkscape"
   width="732"
   height="780"
   viewBox="0 0 732 780"
   version="1.1"
   id="svg12"
   sodipodi:docname="meeple.svg"
   inkscape:version="0.92.4 (5da689c313, 2019-01-14)">
  <metadata
     id="metadata18">
    <rdf:RDF>
      <cc:Work
         rdf:about="">
        <dc:format>image/svg+xml</dc:format>
        <dc:type
           rdf:resource="http://purl.org/dc/dcmitype/StillImage" />
      </cc:Work>
    </rdf:RDF>
  </metadata>
  <defs
     id="defs16" />
  <sodipodi:namedview
     pagecolor="#ffffff"
     bordercolor="#666666"
     borderopacity="1"
     objecttolerance="10"
     gridtolerance="10"
     guidetolerance="10"
     inkscape:pageopacity="0"
     inkscape:pageshadow="2"
     inkscape:window-width="2560"
     inkscape:window-height="1372"
     id="namedview14"
     showgrid="false"
     inkscape:zoom="0.85578051"
     inkscape:cx="482.96687"
     inkscape:cy="344.73095"
     inkscape:window-x="-8"
     inkscape:window-y="-8"
     inkscape:window-maximized="1"
     inkscape:current-layer="svg12" />
  <g
     id="g10">
    <path
       d="M 488.86 780.00 L 0.00 780.00 L 27.75 779.93 C52.72,779.87 55.06,779.73 51.13,778.50 C46.01,776.91 41.32,772.82 39.38,768.28 C38.57,766.41 38.00,761.58 38.00,756.70 C38.00,749.43 39.29,743.20 47.92,708.92 C66.36,635.64 77.90,596.96 93.70,555.50 C104.93,526.03 119.71,495.33 130.26,479.57 C137.54,468.71 140.82,464.50 149.07,455.50 C174.63,427.59 176.16,416.40 155.00,412.12 C151.98,411.50 141.85,410.32 132.50,409.48 C95.55,406.18 93.42,405.75 57.50,394.53 C30.53,386.10 21.60,381.69 11.91,372.06 C3.55,363.75 1.00,357.61 1.00,345.86 C1.00,334.69 3.02,327.63 10.61,312.24 C17.80,297.65 25.18,287.03 36.12,275.51 C68.63,241.28 130.11,210.06 201.73,191.40 C215.83,187.72 219.35,187.12 221.11,188.06 C222.85,188.99 223.74,188.85 225.87,187.29 C232.46,182.48 234.86,171.16 235.98,139.50 C237.24,103.95 241.72,82.92 252.92,59.95 C271.40,22.07 303.44,2.81 347.50,3.08 L 359.50 3.16 L 350.48 5.45 C314.04,14.73 289.56,39.04 276.67,78.76 C269.91,99.60 268.10,111.40 266.98,142.00 C266.04,167.75 264.79,176.05 260.77,183.19 C258.52,187.21 255.62,188.65 252.09,187.53 C247.43,186.05 201.87,199.33 174.00,210.29 C122.69,230.47 84.20,255.07 61.39,282.26 C37.93,310.22 27.86,338.02 33.94,358.04 C35.87,364.39 36.97,366.15 42.33,371.51 C52.77,381.94 60.70,385.77 92.00,395.52 C118.17,403.67 127.66,405.66 151.50,407.97 C187.99,411.52 193.23,412.54 198.09,417.09 C201.96,420.70 201.92,425.06 197.93,432.63 C194.45,439.25 190.84,443.86 179.65,455.99 C157.17,480.36 134.56,525.09 114.19,585.50 C102.40,620.47 94.49,648.38 78.93,710.00 C67.21,756.41 66.52,764.52 73.58,772.91 L 75.98 775.77 L 73.24 776.87 C71.73,777.48 68.70,778.39 66.50,778.89 C64.05,779.45 139.15,779.84 260.90,779.90 L 459.30 780.00 L 455.40 777.16 C450.32,773.47 444.79,767.28 440.28,760.22 C434.18,750.68 423.61,727.60 415.00,705.00 C404.13,676.46 396.56,656.95 386.34,631.16 C386.08,630.51 385.83,629.88 385.58,629.26 C379.94,615.04 377.99,610.11 379.57,606.98 C380.48,605.18 382.55,603.97 385.76,601.94 C395.05,596.04 403.11,599.36 409.30,611.62 C412.58,618.13 431.57,666.07 448.26,710.00 C461.46,744.73 471.98,764.02 483.84,775.25 L 488.86 780.00 ZM 434.57 155.51 C425.75,160.68 415.26,159.39 407.66,152.19 C398.51,143.53 398.73,127.46 408.11,119.56 C413.43,115.07 417.58,113.75 425.08,114.17 C430.41,114.48 432.57,115.13 435.88,117.41 C449.27,126.70 448.56,147.31 434.57,155.51 ZM 335.56 152.11 C321.22,158.63 304.00,147.65 304.00,131.99 C304.00,121.20 310.52,112.72 320.93,109.99 C325.77,108.72 332.95,109.40 336.99,111.51 C343.01,114.65 348.93,124.23 348.98,130.88 C349.03,139.41 343.19,148.64 335.56,152.11 Z"
       fill="rgb(30,129,61)"
       id="path2" />
    <path
       d="M 100.00 778.46 C97.31,779.13 104.21,779.48 139.49,779.68 C115.97,779.59 97.59,779.48 85.16,779.35 C85.20,779.21 84.79,779.04 84.00,778.82 C77.66,777.05 74.73,776.90 69.21,778.19 C70.76,777.75 72.30,777.25 73.24,776.87 L 75.98 775.77 L 73.58 772.91 C66.52,764.52 67.21,756.41 78.93,710.00 C94.49,648.38 102.40,620.47 114.19,585.50 C134.56,525.09 157.17,480.36 179.65,455.99 C190.84,443.86 194.45,439.25 197.93,432.63 C201.92,425.06 201.96,420.70 198.09,417.09 C193.23,412.54 187.99,411.52 151.50,407.97 C127.66,405.66 118.17,403.67 92.00,395.52 C60.70,385.77 52.77,381.94 42.33,371.51 C36.97,366.15 35.87,364.39 33.94,358.04 C27.86,338.02 37.93,310.22 61.39,282.26 C84.20,255.07 122.69,230.47 174.00,210.29 C201.87,199.33 247.43,186.05 252.09,187.53 C255.62,188.65 258.52,187.21 260.77,183.19 C264.79,176.05 266.04,167.75 266.98,142.00 C268.10,111.40 269.91,99.60 276.67,78.76 C289.56,39.04 314.04,14.73 350.48,5.45 L 359.50 3.16 L 347.63 3.08 C367.23,2.59 392.42,3.24 400.56,4.91 C410.84,7.02 419.47,10.26 427.75,15.15 C434.82,19.31 449.37,33.58 454.35,41.23 C468.13,62.40 476.33,88.97 480.03,124.50 C481.22,135.93 481.47,170.68 480.44,179.85 C479.85,185.02 479.99,186.00 481.28,186.00 C482.12,186.00 489.46,184.21 497.57,182.01 C527.04,174.05 560.10,167.52 592.00,163.36 C609.18,161.11 652.43,160.81 664.50,162.85 C673.69,164.40 686.67,168.30 692.50,171.26 C704.36,177.29 721.38,192.68 726.50,202.03 C729.21,206.96 729.50,208.38 729.50,216.50 C729.50,225.23 729.36,225.79 724.75,235.06 C719.82,244.98 706.72,263.12 691.44,281.19 C686.64,286.86 678.20,296.90 672.69,303.50 C660.37,318.24 653.45,326.24 645.00,335.48 C636.08,345.24 611.49,373.00 606.00,379.52 C603.53,382.46 595.91,391.26 589.09,399.09 C568.85,422.30 563.87,429.48 563.70,435.74 C563.59,439.63 563.67,439.71 577.15,449.08 C600.27,465.13 622.86,498.27 646.28,550.50 C665.80,594.01 691.02,674.25 699.09,718.50 C702.16,735.36 702.20,753.25 699.18,761.50 C696.14,769.77 691.04,774.65 682.34,777.62 L 675.50 779.95 L 732.00 780.00 L 488.86 780.00 L 483.84 775.25 C471.98,764.02 461.46,744.73 448.26,710.00 C431.57,666.07 412.58,618.13 409.30,611.62 C403.11,599.36 395.05,596.04 385.76,601.94 C382.55,603.97 380.48,605.18 379.57,606.98 C377.99,610.11 379.94,615.04 385.58,629.26 C385.83,629.88 386.08,630.51 386.34,631.16 L 386.95 632.72 C381.19,618.48 378.22,612.00 377.51,612.00 C376.79,612.00 374.82,614.16 373.12,616.81 C367.08,626.23 329.57,704.74 304.48,760.50 C302.71,764.43 297.54,769.26 292.28,771.90 C282.22,776.93 281.56,776.97 190.50,777.03 C121.94,777.07 104.44,777.35 100.00,778.46 ZM 356.50 271.95 C378.71,274.60 405.79,262.41 434.79,236.73 C444.90,227.77 453.41,219.08 452.74,218.40 C452.60,218.27 449.57,218.84 445.99,219.69 C440.91,220.89 435.82,221.10 422.50,220.66 C397.99,219.85 367.77,215.11 324.77,205.34 C301.94,200.14 297.00,199.34 297.00,200.80 C297.00,202.67 304.08,222.16 307.19,228.86 C311.61,238.37 319.99,250.66 326.18,256.69 C335.42,265.71 345.15,270.60 356.50,271.95 ZM 303.00 173.90 C315.10,177.84 330.72,175.46 341.39,168.05 C353.19,159.85 360.00,146.52 360.00,131.62 C360.00,113.72 350.57,98.83 334.43,91.28 C328.93,88.70 327.58,88.50 315.91,88.50 L 303.31 88.50 L 295.60 92.42 C286.39,97.09 280.07,103.59 275.59,113.00 C272.67,119.15 272.50,120.15 272.50,131.52 C272.50,143.02 272.64,143.83 275.69,150.02 C281.63,162.09 290.45,169.80 303.00,173.90 ZM 409.55 186.89 C413.44,188.23 418.13,188.94 423.09,188.97 C440.55,189.04 455.26,179.65 463.05,163.45 C465.90,157.52 466.45,155.16 466.81,147.39 C467.71,127.83 459.19,113.14 442.06,104.71 C436.38,101.91 434.42,101.49 425.56,101.17 C417.22,100.86 414.40,101.17 409.08,102.97 C397.22,106.97 389.32,113.99 383.27,125.91 C379.54,133.24 379.50,133.45 379.54,144.91 C379.58,155.33 379.86,157.09 382.28,162.35 C387.60,173.89 397.40,182.71 409.55,186.89 ZM 0.00 0.00 L 0.12 172.25 C0.19,267.51 0.61,341.98 1.07,338.87 C2.33,330.31 5.53,321.67 12.15,309.00 C17.27,299.20 22.53,291.21 29.22,283.22 C21.86,292.02 16.18,300.94 10.61,312.24 C3.02,327.63 1.00,334.69 1.00,345.86 C1.00,350.08 1.33,353.57 2.14,356.70 C1.64,355.08 1.26,353.44 1.02,351.77 C1.01,351.73 1.01,351.71 1.00,351.71 C0.58,351.71 0.19,445.81 0.12,563.25 L 0.00 780.00 ZM 241.23 92.71 C238.22,105.86 236.65,120.64 235.98,139.50 C236.69,119.45 238.14,105.67 241.23,92.71 ZM 7.21 366.81 C8.52,368.51 10.07,370.23 11.91,372.06 C15.67,375.80 19.32,378.75 23.95,381.46 C19.76,379.04 16.35,376.44 12.95,373.29 C10.75,371.26 8.83,369.09 7.21,366.81 ZM 307.49 9.29 C313.43,7.17 319.72,5.57 326.35,4.50 C327.83,4.26 329.69,4.04 331.84,3.86 C323.18,4.81 315.05,6.62 307.49,9.29 ZM 249.20 68.09 C252.48,60.16 256.29,52.93 260.62,46.42 C257.84,50.62 255.27,55.14 252.92,59.95 C251.59,62.68 250.35,65.39 249.20,68.09 ZM 410.78 693.94 C412.14,697.49 413.54,701.16 415.00,705.00 C417.15,710.65 419.43,716.33 421.72,721.82 C419.43,716.33 417.15,710.65 415.00,705.00 C413.55,701.18 412.14,697.50 410.78,693.94 Z"
       fill="rgb(127,192,67)"
       id="path4" />
    <path
       d="M 69.70 247.75 C90.65,233.51 116.09,220.63 145.76,209.28 C125.38,217.10 106.53,225.90 89.78,235.38 L 89.76 235.39 C82.68,239.40 75.98,243.52 69.70,247.75 ZM 7.21 366.81 C8.83,369.09 10.75,371.26 12.95,373.29 C16.35,376.44 19.76,379.04 23.95,381.46 L 23.95 381.46 C24.56,381.81 25.19,382.16 25.83,382.51 C21.12,380.02 17.46,377.42 14.04,374.35 C9.47,370.24 6.92,367.31 4.85,363.32 C5.52,364.49 6.31,365.65 7.21,366.81 ZM 2.33 332.63 C1.79,334.75 1.37,336.81 1.07,338.87 C1.00,339.38 0.92,337.79 0.85,334.34 C0.90,335.89 0.96,336.63 1.01,336.50 C1.29,335.86 1.79,334.39 2.33,332.63 ZM 180.34 197.43 C191.18,194.09 201.28,191.30 208.76,189.61 C206.76,190.10 204.44,190.69 201.73,191.40 C194.49,193.28 187.35,195.30 180.34,197.43 ZM 2.43 357.76 C2.41,357.70 2.39,357.64 2.37,357.58 L 0.90 353.63 C0.93,352.36 0.96,351.71 1.00,351.71 C1.01,351.71 1.01,351.73 1.02,351.77 C1.26,353.44 1.64,355.08 2.14,356.70 C2.23,357.06 2.33,357.41 2.43,357.76 ZM 29.09 283.38 C25.25,287.98 21.88,292.58 18.74,297.53 C20.47,294.70 22.13,292.20 23.58,290.26 C25.33,287.95 27.16,285.65 29.09,283.38 ZM 6.36 321.08 C5.23,323.72 4.30,326.19 3.53,328.54 C4.06,326.63 5.06,324.04 6.36,321.08 Z"
       fill="rgb(178,227,167)"
       id="path6" />
    <path
       d="M 0.05 565.75 L 0.10 351.50 L 2.37 357.58 C5.14,365.06 7.55,368.51 14.04,374.35 C22.66,382.09 32.82,386.81 57.50,394.53 C93.42,405.75 95.55,406.18 132.50,409.48 C141.85,410.32 151.98,411.50 155.00,412.12 C176.16,416.40 174.63,427.59 149.07,455.50 C140.82,464.50 137.54,468.71 130.26,479.57 C119.71,495.33 104.93,526.03 93.70,555.50 C77.90,596.96 66.36,635.64 47.92,708.92 C39.29,743.20 38.00,749.43 38.00,756.70 C38.00,761.58 38.57,766.41 39.38,768.28 C41.32,772.82 46.01,776.91 51.13,778.50 C55.06,779.73 52.72,779.87 27.75,779.93 L 0.00 780.00 L 0.05 565.75 ZM 68.50 778.36 C74.49,776.89 77.39,776.97 84.00,778.82 C86.77,779.59 84.88,779.80 75.00,779.81 L 62.50 779.83 L 68.50 778.36 ZM 100.00 778.46 C104.44,777.35 121.94,777.07 190.50,777.03 C281.56,776.97 282.22,776.93 292.28,771.90 C297.54,769.26 302.71,764.43 304.48,760.50 C329.57,704.74 367.08,626.23 373.12,616.81 C374.82,614.16 376.79,612.00 377.51,612.00 C378.97,612.00 389.97,639.30 415.00,705.00 C423.61,727.60 434.18,750.69 440.28,760.22 C444.79,767.28 450.32,773.47 455.40,777.16 L 459.30 780.00 L 276.90 779.91 C120.17,779.84 95.27,779.64 100.00,778.46 ZM 682.34 777.62 C691.04,774.65 696.14,769.77 699.18,761.50 C702.20,753.25 702.16,735.36 699.09,718.50 C691.02,674.25 665.80,594.01 646.28,550.50 C622.86,498.27 600.27,465.13 577.15,449.08 C563.67,439.71 563.59,439.63 563.70,435.74 C563.87,429.48 568.85,422.30 589.09,399.09 C595.91,391.26 603.53,382.46 606.00,379.52 C611.49,373.00 636.08,345.24 645.00,335.48 C653.45,326.24 660.37,318.24 672.69,303.50 C678.20,296.90 686.64,286.86 691.44,281.19 C706.72,263.12 719.82,244.98 724.75,235.06 C729.36,225.79 729.50,225.23 729.50,216.50 C729.50,208.38 729.21,206.96 726.50,202.03 C721.38,192.68 704.36,177.29 692.50,171.26 C686.67,168.30 673.69,164.40 664.50,162.85 C652.43,160.81 609.18,161.11 592.00,163.36 C560.10,167.52 527.04,174.05 497.57,182.01 C489.46,184.21 482.12,186.00 481.28,186.00 C479.99,186.00 479.85,185.02 480.44,179.85 C481.47,170.68 481.22,135.93 480.03,124.50 C476.33,88.97 468.13,62.40 454.35,41.23 C449.37,33.58 434.82,19.31 427.75,15.15 C419.47,10.26 410.84,7.02 400.56,4.91 C388.69,2.48 340.49,2.21 326.35,4.50 C288.08,10.69 261.07,34.50 246.64,74.75 C239.64,94.29 237.02,110.19 235.98,139.50 C234.86,171.16 232.46,182.48 225.87,187.29 C223.74,188.85 222.85,188.99 221.11,188.06 C217.42,186.08 176.81,197.48 146.67,208.93 C89.31,230.75 47.67,258.26 23.58,290.26 C16.87,299.19 5.80,320.33 3.52,328.59 C2.62,331.84 1.49,335.40 1.01,336.50 C0.51,337.66 0.11,267.10 0.07,169.25 L 0.00 0.00 L 366.00 0.00 L 732.00 0.00 L 732.00 390.00 L 732.00 780.00 L 703.75 779.97 L 675.50 779.95 L 682.34 777.62 ZM 356.50 271.95 C345.15,270.60 335.42,265.71 326.18,256.69 C319.99,250.66 311.61,238.37 307.19,228.86 C304.08,222.16 297.00,202.67 297.00,200.80 C297.00,199.34 301.94,200.14 324.77,205.34 C367.77,215.11 397.99,219.85 422.50,220.66 C435.82,221.10 440.91,220.89 445.99,219.69 C449.57,218.84 452.60,218.27 452.74,218.40 C453.41,219.08 444.90,227.77 434.79,236.73 C405.79,262.41 378.71,274.60 356.50,271.95 ZM 409.55 186.89 C397.40,182.71 387.60,173.89 382.28,162.35 C379.86,157.09 379.58,155.33 379.54,144.91 C379.50,133.45 379.54,133.24 383.27,125.91 C389.32,113.99 397.22,106.97 409.08,102.97 C414.40,101.17 417.22,100.86 425.56,101.17 C434.42,101.49 436.38,101.91 442.06,104.71 C459.19,113.14 467.71,127.83 466.81,147.39 C466.45,155.16 465.90,157.52 463.05,163.45 C455.26,179.65 440.55,189.04 423.09,188.97 C418.13,188.94 413.44,188.23 409.55,186.89 ZM 434.57 155.51 C448.56,147.31 449.27,126.70 435.88,117.41 C432.57,115.13 430.41,114.48 425.08,114.17 C417.58,113.75 413.43,115.07 408.11,119.56 C398.73,127.46 398.51,143.53 407.66,152.19 C415.26,159.39 425.75,160.68 434.57,155.51 ZM 303.00 173.90 C290.45,169.80 281.63,162.09 275.69,150.02 C272.64,143.83 272.50,143.02 272.50,131.52 C272.50,120.15 272.67,119.15 275.59,113.00 C280.07,103.59 286.39,97.09 295.60,92.42 L 303.31 88.50 L 315.91 88.50 C327.58,88.50 328.93,88.70 334.43,91.28 C350.57,98.83 360.00,113.72 360.00,131.62 C360.00,146.52 353.19,159.85 341.39,168.05 C330.72,175.46 315.10,177.84 303.00,173.90 ZM 335.56 152.11 C343.19,148.64 349.03,139.41 348.98,130.88 C348.93,124.23 343.01,114.65 336.99,111.51 C332.95,109.40 325.77,108.72 320.93,109.99 C310.52,112.72 304.00,121.20 304.00,131.99 C304.00,147.65 321.22,158.63 335.56,152.11 Z"
       fill="none"
       id="path8" />
  </g>
  <path
     style="fill:#ffffff;stroke-width:1.16852391"
     d="m 353.31971,270.98491 c -19.87115,-3.57106 -38.92794,-23.77377 -49.72527,-52.71536 -6.59618,-17.68068 -6.53803,-17.4064 -3.69058,-17.4064 1.33231,0 11.753,2.06671 23.1571,4.5927 57.1037,12.64835 94.0917,17.38714 117.93569,15.10958 4.99325,-0.47696 9.29505,-0.6508 9.55953,-0.38632 0.64753,0.64753 -13.793,14.39317 -23.21105,22.09411 -27.22203,22.2589 -53.41047,32.41641 -74.02542,28.71169 z"
     id="path3724"
     inkscape:connector-curvature="0" />
  <path
     style="fill:#ffffff;stroke-width:1.16852391"
     d="m 304.06586,173.58633 c -12.55444,-4.1666 -22.80533,-13.08615 -28.09372,-24.44505 -2.42387,-5.20622 -2.85104,-7.88065 -2.86075,-17.9108 -0.0104,-10.73461 0.29781,-12.40954 3.44084,-18.69929 4.236,-8.47699 9.97243,-14.178664 19.91823,-19.797533 l 7.5954,-4.291019 12.8613,0.477542 c 11.48896,0.426587 13.52638,0.839526 19.09436,3.870002 8.67872,4.72355 15.1106,11.523498 19.32763,20.433678 3.12865,6.61052 3.59709,8.88332 3.6126,17.52785 0.0213,11.89465 -2.22598,19.16907 -8.48344,27.46032 -4.87511,6.45961 -13.3089,12.67577 -19.91347,14.6773 -6.82213,2.06747 -21.22789,2.44639 -26.49898,0.697 z m 30.59768,-20.707 c 8.02307,-3.03133 14.39049,-12.74319 14.39049,-21.949 0,-6.9436 -5.24521,-15.6706 -11.64636,-19.37724 -5.37717,-3.11371 -15.40266,-3.19426 -21.50024,-0.17274 -12.5383,6.21307 -16.0879,23.74775 -6.9949,34.55416 6.05056,7.19068 17.16607,10.18844 25.75101,6.94482 z"
     id="path3726"
     inkscape:connector-curvature="0" />
  <path
     style="fill:#ffffff;stroke-width:1.16852391;fill-opacity:1"
     d="m 407.27175,185.28009 c -11.06606,-4.64371 -18.58429,-11.68823 -24.16192,-22.63955 -2.10246,-4.12802 -2.50565,-6.94582 -2.50565,-17.51108 0,-11.38035 0.30537,-13.19497 3.17492,-18.86654 4.8293,-9.54495 11.13868,-15.9666 19.94448,-20.2994 7.34429,-3.61367 8.53187,-3.83874 20.09553,-3.80851 11.138,0.0291 12.87485,0.33717 18.53012,3.28654 8.77368,4.57571 15.95612,11.60194 19.71633,19.28754 2.72585,5.57144 3.28576,8.40515 3.66038,18.52526 0.41921,11.32472 0.25727,12.34302 -3.10585,19.52983 -4.37908,9.35787 -12.25412,17.41451 -21.02306,21.50785 -9.64861,4.50397 -24.90054,4.943 -34.32528,0.98806 z m 24.37928,-27.72666 c 7.73611,-2.92291 14.33916,-12.84342 14.33916,-21.54336 0,-19.05658 -22.82948,-29.55955 -37.47143,-17.23916 -15.74908,13.25197 -6.14848,39.9912 14.36834,40.01818 3.01093,0.004 6.9547,-0.55209 8.76393,-1.23566 z"
     id="path3728"
     inkscape:connector-curvature="0" />
</svg>
